<?xml version="1.0" standalone="no"?>
<!DOCTYPE svg PUBLIC "-//W3C//DTD SVG 1.1//EN" "http://www.w3.org/Graphics/SVG/1.1/DTD/svg11.dtd" >
<svg xmlns="http://www.w3.org/2000/svg">
<metadata>
Created by FontForge 20120731 at Mon Nov 28 15:19:09 2016
 By admin
</metadata>
<defs>
<font id="iconfont" horiz-adv-x="1024" >
  <font-face 
    font-family="iconfont"
    font-weight="500"
    font-stretch="normal"
    units-per-em="1024"
    panose-1="2 0 6 3 0 0 0 0 0 0"
    ascent="896"
    descent="-128"
    x-height="792"
    bbox="0 -592 5120 1360"
    underline-thickness="0"
    underline-position="0"
    unicode-range="U+0078-EC21"
  />
<missing-glyph 
 />
    <glyph glyph-name=".notdef" 
 />
    <glyph glyph-name=".notdef" 
 />
    <glyph glyph-name=".null" horiz-adv-x="0" 
 />
    <glyph glyph-name="nonmarkingreturn" horiz-adv-x="341" 
 />
    <glyph glyph-name="x" unicode="x" horiz-adv-x="1001" 
d="M281 543q-27 -1 -53 -1h-83q-18 0 -36.5 -6t-32.5 -18.5t-23 -32t-9 -45.5v-76h912v41q0 16 -0.5 30t-0.5 18q0 13 -5 29t-17 29.5t-31.5 22.5t-49.5 9h-133v-97h-438v97zM955 310v-52q0 -23 0.5 -52t0.5 -58t-10.5 -47.5t-26 -30t-33 -16t-31.5 -4.5q-14 -1 -29.5 -0.5
t-29.5 0.5h-32l-45 128h-439l-44 -128h-29h-34q-20 0 -45 1q-25 0 -41 9.5t-25.5 23t-13.5 29.5t-4 30v167h911zM163 247q-12 0 -21 -8.5t-9 -21.5t9 -21.5t21 -8.5q13 0 22 8.5t9 21.5t-9 21.5t-22 8.5zM316 123q-8 -26 -14 -48q-5 -19 -10.5 -37t-7.5 -25t-3 -15t1 -14.5
t9.5 -10.5t21.5 -4h37h67h81h80h64h36q23 0 34 12t2 38q-5 13 -9.5 30.5t-9.5 34.5q-5 19 -11 39h-368zM336 498v228q0 11 2.5 23t10 21.5t20.5 15.5t34 6h188q31 0 51.5 -14.5t20.5 -52.5v-227h-327z" />
    <glyph glyph-name="liwu" unicode="&#xe65a;" 
d="M55 -31zM633 540q23 51 51.5 86.5t56.5 35.5q7 0 11 -1q37 -11 33 -39q-4 -27 -43.5 -52.5t-108.5 -29.5zM562 319h314v-466h-314v466zM252 620q-1 16 8.5 26t24.5 13q5 2 11 2q50 0 108 -124q-69 4 -109 30t-43 53zM149 319h313v-466h-313v466zM952 353v140h-167
q78 46 88 117q6 47 -20 84t-76 51q-17 5 -36 5q-33 0 -63.5 -16.5t-51.5 -40t-41 -56t-30 -55.5t-19 -47h-35q-86 214 -205 214q-17 0 -36 -6q-49 -15 -75.5 -51.5t-20.5 -83.5q10 -67 85 -115h-178v-140h881zM969 -31z" />
    <glyph glyph-name="iconfontxiaoxi" unicode="&#xe632;" 
d="M904 742h-784q-37 0 -63 -26t-26 -63v-500q0 -37 26 -63.5t63 -26.5h150v-205l228 205h406q37 0 63 26.5t26 63.5v500q0 37 -26 63t-63 26zM273.5 384q-24.5 0 -42 17.5t-17.5 42t17.5 42t42 17.5t42 -17.5t17.5 -42t-17.5 -42t-42 -17.5zM513.5 383q-24.5 0 -42 17
t-17.5 42t17.5 42.5t42 17.5t42 -17.5t17.5 -42.5t-17.5 -42t-42 -17zM750.5 381q-24.5 0 -42 17.5t-17.5 42.5t17.5 42t42 17t42 -17t17.5 -42t-17.5 -42.5t-42 -17.5z" />
    <glyph glyph-name="yuanshixin" unicode="&#xe67a;" 
d="M512 892q-102 0 -195 -40t-160.5 -107t-107.5 -160.5t-40 -195.5t40 -195t107.5 -160.5t160.5 -107.5t195 -40t195 40t160.5 107.5t107.5 160.5t40 195t-40 195.5t-107.5 160.5t-160.5 107t-195 40z" />
    <glyph glyph-name="phone" unicode="&#xec20;" 
d="M509 181q-76 61 -134 133q-13 17 -21 29t-14.5 26t-4.5 26t11 22l-191 191q-10 -13 -18 -36t-7.5 -67t16.5 -95t62.5 -123.5t121.5 -149.5q79 -81 154.5 -132t129.5 -68.5t99.5 -19t70 7t35.5 20.5l-186 186q-9 -10 -20.5 -11t-27.5 7t-32 19.5t-44 34.5zM887 53v0
l-146 145q-8 9 -20 9t-21 -9l-53 -53l187 -186l8.5 8.5l17 17t19.5 19l8 7.5v1q9 9 8.5 21t-8.5 20zM413 484v0q9 10 9 21.5t-9 20.5v0l-149 149q-9 9 -21 9t-20 -9l-53 -53l191 -190z" />
    <glyph glyph-name="shouye" unicode="&#xe669;" 
d="M831 273l-312 288l-312 -282l85 -1l-1 -231h169v147h106v-147h169v227zM511 -146q-91 0 -174 35q-80 34 -141.5 95.5t-95.5 141.5q-35 83 -35 174t35 174q34 80 95.5 142t141.5 96q83 35 174 35t174 -35q80 -34 142 -96t96 -142q35 -83 35 -174t-35 -174
q-34 -80 -96 -141.5t-142 -95.5q-83 -35 -174 -35zM511 716q-113 0 -208.5 -55.5t-151.5 -151.5t-56 -209t56 -208.5t151.5 -151.5t208.5 -56t209 56t151.5 151.5t55.5 208.5t-55.5 209t-151.5 151.5t-209 55.5z" />
    <glyph glyph-name="dangqianweizhi" unicode="&#xe603;" 
d="M512 812q-139 0 -257 -68.5t-186.5 -186.5t-68.5 -257t68.5 -257t186.5 -186.5t257 -68.5t257 68.5t186.5 186.5t68.5 257t-68.5 257t-186.5 186.5t-257 68.5zM512 -178q-97 0 -185.5 38t-152.5 102t-102 152.5t-38 185.5t38 185.5t102 152.5t152.5 102t185.5 38
t185.5 -38t152.5 -102t102 -152.5t38 -185.5t-38 -185.5t-102 -152.5t-152.5 -102t-185.5 -38zM501 661l369 -378l-33 -32l-368 379zM534 630l-368 -379l-33 32l368 378zM222 367h39v-278h-39v278zM732 376h39v-287h-39v287zM257 128h184v-39h-184v39zM568 128h164v-39h-164
v39zM414 251h174v-38h-174v38zM401 251h40v-154h-40v154zM549 251h39v-162h-39v162z" />
    <glyph glyph-name="apple" unicode="&#xe608;" 
d="M791 268q0 36 12 70t24.5 53.5t34 39.5t26 22.5t14.5 9.5q-21 31 -49 52.5t-55.5 31t-46.5 13.5t-36 4q-35 4 -75 -7.5t-73 -25.5t-48 -14q-17 0 -75 23t-94 22q-65 -1 -121.5 -35.5t-90.5 -92.5q-32 -57 -40 -129t5.5 -141.5t39.5 -133t60 -112.5q20 -30 34.5 -48.5
t36 -40t44 -32t46.5 -9.5q30 1 78.5 21.5t89.5 20.5q40 0 88 -20.5t81 -20.5q25 1 47 11t42.5 30.5t34 37.5t33.5 47q44 65 71 146v0q-8 3 -18 8t-33 22.5t-40.5 39t-31.5 58t-15 79.5zM662.5 648.5q28.5 34.5 43.5 77.5t10 86q-39 -2 -81 -23.5t-70 -54.5
q-27 -31 -43.5 -74t-10.5 -84q41 -3 82 17.5t69.5 55z" />
    <glyph glyph-name="shouye1" unicode="&#xe605;" 
d="M831 273l-312 288l-312 -282l85 -1l-1 -231h169v147h106v-147h169v227zM511 -146q-91 0 -174 35q-80 34 -141.5 95.5t-95.5 141.5q-35 83 -35 174t35 174q34 80 95.5 142t141.5 96q83 35 174 35t174 -35q80 -34 142 -96t96 -142q35 -83 35 -174t-35 -174
q-34 -80 -96 -141.5t-142 -95.5q-83 -35 -174 -35zM511 716q-113 0 -208.5 -55.5t-151.5 -151.5t-56 -209t56 -208.5t151.5 -151.5t208.5 -56t209 56t151.5 151.5t55.5 208.5t-55.5 209t-151.5 151.5t-209 55.5z" />
    <glyph glyph-name="play" unicode="&#xe61c;" 
d="M709 345l-288 163q-32 19 -55 5.5t-23 -51.5v-324q0 -38 23 -51.5t55 5.5l288 163q33 19 33 45t-33 45zM512 748q-91 0 -174 -35.5t-143 -95.5t-95.5 -143t-35.5 -174t35.5 -174t95.5 -143t143 -95.5t174 -35.5t174 35.5t143 95.5t95.5 143t35.5 174t-35.5 174t-95.5 143
t-143 95.5t-174 35.5zM512 -130q-117 0 -216 57.5t-156.5 156.5t-57.5 216t57.5 216t156.5 156.5t216 57.5t216 -57.5t156.5 -156.5t57.5 -216t-57.5 -216t-156.5 -156.5t-216 -57.5z" />
    <glyph glyph-name="juxing184" unicode="&#xe601;" 
d="M329 1360h366v-1952h-366v1952z" />
    <glyph glyph-name="icon10" unicode="&#xe60a;" 
d="M961 303l-464 -2v123l464 2v-123zM960 524l-464 -3v123l463 3zM408 90l-342 -2l-3 553l342 2zM961 92l-464 -3v123l464 3v-123z" />
    <glyph glyph-name="caidan" unicode="&#xe600;" 
d="M164 732h696v-78h-696v78zM396 423h464v-78h-464v78zM319 114h541v-78h-541v78z" />
    <glyph glyph-name="shouye-copy" unicode="&#xe62a;" 
d="M1011 448l-139 109v121q0 16 -11 26.5t-26 10.5h-70q-15 0 -25.5 -10.5t-10.5 -26.5v-16l-172 131l-2 2q-19 13 -43 13t-44 -14q0 -1 -1 -1l-453 -345q-9 -7 -11 -18t5 -20t18 -11t20 5l453 345v0q6 4 13.5 4t13.5 -4v0v0l453 -345q9 -7 20 -5t17.5 11t5 20t-10.5 18z
M863 391l-314 243h-1q-16 12 -36 12q-19 0 -36 -12v0l-314 -243q-11 -8 -11 -22v-307q0 -40 27.5 -68t66.5 -28h152v230q0 30 21 51.5t51 21.5h75q30 0 51.5 -21.5t21.5 -51.5v-230h163q39 0 66.5 28t27.5 68v307q0 14 -11 22z" />
    <glyph glyph-name="15" unicode="&#xe604;" 
d="M512 896q-104 0 -199 -40.5t-163.5 -109t-109 -163.5t-40.5 -199t40.5 -199t109 -163.5t163.5 -109t199 -40.5t199 40.5t163.5 109t109 163.5t40.5 199t-40.5 199t-109 163.5t-163.5 109t-199 40.5zM512 -95q-97 0 -185.5 38t-153 102.5t-102.5 153t-38 185.5t38 185.5
t102.5 153t153 102.5t185.5 38t185.5 -38t153 -102.5t102.5 -153t38 -185.5t-38 -185.5t-102.5 -153t-153 -102.5t-185.5 -38zM858 383l-346 324l-346 -323q-5 -5 -5 -11.5t4.5 -12t11.5 -5.5t12 5l323 301l323 -302q5 -5 11 -5q8 0 13 6q4 5 4 12t-5 11zM752 377
q-7 0 -11.5 -5t-4.5 -12v-257h-135v179h-178v-179h-135v257q0 7 -4.5 12t-11.5 5t-12 -5t-5 -12v-291h201v179h112v-179h201v291q0 7 -5 12t-12 5zM635 617h101v-89q0 -7 4.5 -12t11.5 -5t12 5t5 12v122h-134q-7 0 -12 -4.5t-5 -11.5t5 -12t12 -5z" />
    <glyph glyph-name="play1" unicode="&#xe6ac;" 
d="M512 -128q-139 0 -257 68.5t-186.5 186.5t-68.5 257t68.5 257t186.5 186.5t257 68.5t257 -68.5t186.5 -186.5t68.5 -257t-68.5 -257t-186.5 -186.5t-257 -68.5zM512 823q-89 0 -170.5 -35t-140 -93.5t-93.5 -140t-35 -170.5t35 -170.5t93.5 -140t140 -93.5t170.5 -35
t170.5 35t140 93.5t93.5 140t35 170.5t-35 170.5t-93.5 140t-140 93.5t-170.5 35zM707 340l-265 -168v0q-3 -1 -6 -3v0l-6 -2h-1q-1 -1 -2 -1h-1q-1 -1 -3 -1h-1h-2h-0.5h-0.5h-1.5h-1.5q-21 0 -35.5 14.5t-14.5 35.5v0v0v338q0 21 14.5 35.5t35.5 14.5q15 0 28 -8l262 -167
q25 -15 25 -44t-24 -44z" />
    <glyph glyph-name="xjifsandian2" unicode="&#xe9a7;" 
d="M385 894v-255h254v255h-254zM385 253h254v255h-254v-255zM385 -126h254v255h-254v-255z" />
    <glyph glyph-name="lianxikefu" unicode="&#xec1f;" 
d="M813 402q4 1 10 2t22 7.5t28.5 16t22.5 27.5t11 41.5t-7 42.5t-20.5 29t-24.5 17t-21 9l-8 2q-26 106 -113.5 175.5t-200 69.5t-199.5 -69t-113 -176q-4 -1 -9.5 -2t-20.5 -8.5t-26 -17.5t-19.5 -29.5t-7.5 -43.5t11 -43t24 -28t27.5 -14.5t23.5 -6.5l9 -1q1 0 28 4
q-23 54 -23 113q0 122 86.5 208.5t209 86.5t209 -86.5t86.5 -208.5q0 -96 -55.5 -172.5t-143.5 -107.5q-12 12 -28 12q-17 0 -29 -12t-12 -29t12 -29t29 -12t29 12t12 29v5q66 24 116 73t75 114zM528 285q55 -2 106 -20q8 -3 16.5 1t11.5 12.5t-1 16.5t-12 11q-5 2 -22 7
q61 32 97.5 91t36.5 130q0 103 -73 176t-176 73t-176 -73t-73 -176q0 -71 36.5 -130t97.5 -91q-115 -35 -202 -130.5t-121 -228.5q-2 -8 2.5 -16t13.5 -10q3 -1 6 -1q17 0 21 17q37 146 143 241t237 100h15h16zM307 534q0 85 60 145t145 60t145 -60t60 -145q0 -81 -55 -140
t-134 -65q-2 0 -7.5 0.5t-8.5 0.5t-8 -0.5t-7 -0.5q-80 6 -135 65t-55 140zM950 -45q-25 96 -79 175t-130 129q-7 5 -16 3.5t-14 -9t-3.5 -16.5t9.5 -14q69 -46 118.5 -118.5t71.5 -160.5q4 -17 21 -17q3 0 6 1q9 2 13.5 10t2.5 17z" />
    <glyph glyph-name="anonymous-iconfont" unicode="&#xe6ae;" 
d="M197 382q0 -130 92 -222.5t222.5 -92.5t223 92.5t92.5 223t-92.5 222.5t-223 92t-222.5 -92t-92 -223v0zM512 851q-96 0 -182.5 -37t-149.5 -100t-100 -149.5t-37 -182t37 -182.5t100 -149.5t149.5 -100t182 -37.5t182.5 37.5t149.5 100t100 149.5t37.5 182.5t-37.5 182
t-100 149.5t-149.5 100t-182 37v0zM512 -34q-113 0 -209 56t-151.5 151.5t-55.5 208.5t55.5 209t151.5 151.5t209 55.5t208.5 -55.5t151.5 -151.5t56 -209t-56 -208.5t-151.5 -151.5t-208.5 -56v0zM512 -34z" />
    <glyph glyph-name="yuan" unicode="&#xe6a0;" 
d="M511 -128q-104 0 -198.5 40.5t-163 109t-109 163t-40.5 198.5t40.5 199t109 163.5t163 109t198.5 40.5t199 -40.5t163.5 -109t109 -163.5t40.5 -199t-40.5 -198.5t-109 -163t-163.5 -109t-199 -40.5zM511.5 838q-92.5 0 -176.5 -36t-145 -97t-97 -145t-36 -176.5
t36 -176.5t97 -145t145 -97t176.5 -36t176.5 36t145 97t97 145t36 176.5t-36 176.5t-97 145t-145 97t-176.5 36zM511.5 99q-117.5 0 -201 83.5t-83.5 201t83.5 200.5t201 83t200.5 -83t83 -200.5t-83 -201t-200.5 -83.5z" />
    <glyph glyph-name="yuanjiaojuxing15" unicode="&#xe602;" horiz-adv-x="5120" 
d="M0 896h5120v-1024h-5120v1024z" />
    <glyph glyph-name="meiyoubiaoqing" unicode="&#xe681;" horiz-adv-x="1718" 
d="M246 258h-56q0 51 -35 88t-85 37v57q74 0 121 -48q23 -24 39 -62t16 -72v0zM246 258zM431 143q-73 87 -73 213.5t73 216.5h56q-74 -94 -74 -216q0 -123 74 -214h-56v0zM431 143zM662 547q0 -33 -16 -71t-39 -63q-46 -48 -121 -48v57q50 0 85 37t35 88h56v0zM662 547z
M959 150h-200v47h200v-47v0zM959 150zM1231 365q-32 0 -69 16.5t-60 40.5q-46 49 -46 125h55q0 -51 35.5 -88t84.5 -37v-57v0zM1231 365zM1232 143q73 91 73 214q0 122 -74 216h56q74 -89 74 -216.5t-74 -213.5h-55v0zM1232 143zM1648 383q-50 0 -85 -37t-35 -88h-56
q0 77 46 125q24 24 60.5 40.5t69.5 16.5v-57v0zM1648 383z" />
    <glyph glyph-name="xiaoxi" unicode="&#xe62d;" 
d="M881 834h-750q-38 0 -66 -18t-28 -49v-542q0 -33 26.5 -57.5t61.5 -24.5l427 1q212 -210 216 -210v0l17 212h1h126q33 0 54 22.5t21 56.5v511q0 46 -29 72t-77 26zM954 734q-1 15 -4 27q4 -11 4 -25v-2zM570 482.5q0 -19.5 -14.5 -34t-34 -14.5t-33.5 14.5t-14 34
t14 33.5t33.5 14t34 -14t14.5 -33.5zM354 482.5q0 -19.5 -14.5 -34t-34 -14.5t-33.5 14.5t-14 34t14 33.5t33.5 14t34 -14t14.5 -33.5zM738 434q-20 0 -34 14.5t-14 34t14 33.5t34 14t34 -14t14 -33.5t-14 -34t-34 -14.5z" />
    <glyph glyph-name="icon10-copy" unicode="&#xec21;" 
d="M1532 287l-683 -4l-1 181l683 4zM1530 611l-683 -4l-1 182l683 3zM717 -28l-504 -2l-5 814l504 2zM1532 -25l-683 -4l-1 181l683 4z" />
  </font>
</defs>
</svg>
